<svg width="45" height="45" viewBox="0 0 45 45" fill="none" xmlns="http://www.w3.org/2000/svg">
<path fill-rule="evenodd" clip-rule="evenodd" d="M0 37.1739C0 30.377 4.15203 24.5917 9.9539 22.4296C11.5308 21.8418 13.2296 21.5217 15 21.5217C16.7704 21.5217 18.4692 21.8418 20.046 22.4296C20.9028 22.7486 21.7232 23.147 22.5 23.6157C23.2768 23.147 24.0972 22.7486 24.954 22.4296C26.5308 21.8418 28.2295 21.5217 30 21.5217C31.7705 21.5217 33.4692 21.8418 35.046 22.4296C40.848 24.5917 45 30.377 45 37.1739V45H31.875V41.087H41.25V37.1739C41.25 30.6905 36.2132 25.4348 30 25.4348C28.5072 25.4348 27.0825 25.7382 25.779 26.2891C28.392 29.106 30 32.9439 30 37.1739V45H0V37.1739ZM15 19.5652C13.2776 19.5652 11.6637 19.0805 10.2767 18.2348C7.49425 16.5381 5.625 13.3881 5.625 9.78261C5.625 4.37982 9.82232 0 15 0C18.0667 0 20.7895 1.53655 22.5 3.91208C24.2105 1.53655 26.9333 0 30 0C35.1777 0 39.375 4.37982 39.375 9.78261C39.375 13.3881 37.5057 16.5381 34.7232 18.2348C33.3363 19.0805 31.7225 19.5652 30 19.5652C28.2775 19.5652 26.6637 19.0805 25.2767 18.2348C24.194 17.5745 23.2498 16.6943 22.5 15.6531C21.7502 16.6946 20.806 17.5745 19.7233 18.2348C18.3363 19.0805 16.7224 19.5652 15 19.5652ZM26.25 37.1739V41.087H3.75V37.1739C3.75 30.6905 8.7868 25.4348 15 25.4348C21.2132 25.4348 26.25 30.6905 26.25 37.1739ZM20.625 9.78261C20.625 13.0243 18.1065 15.6522 15 15.6522C11.8934 15.6522 9.375 13.0243 9.375 9.78261C9.375 6.54094 11.8934 3.91304 15 3.91304C18.1065 3.91304 20.625 6.54094 20.625 9.78261ZM30 3.91304C26.8935 3.91304 24.375 6.54094 24.375 9.78261C24.375 13.0243 26.8935 15.6522 30 15.6522C33.1065 15.6522 35.625 13.0243 35.625 9.78261C35.625 6.54094 33.1065 3.91304 30 3.91304Z" fill="#A8DADC"/>
</svg>
