<svg width="24" height="24" viewBox="0 0 24 24" fill="none" xmlns="http://www.w3.org/2000/svg">
<path d="M11.6 1.6001C6.09999 1.6001 1.6 6.10813 1.6 11.6604C1.6 16.6804 5.25999 20.8471 10.04 21.6001V14.572H7.49999V11.6604H10.04V9.44146C10.04 6.92138 11.53 5.53584 13.82 5.53584C14.91 5.53584 16.05 5.7266 16.05 5.7266V8.20652H14.79C13.55 8.20652 13.16 8.97961 13.16 9.7728V11.6604H15.94L15.49 14.572H13.16V21.6001C15.5164 21.2264 17.6622 20.0193 19.2099 18.1965C20.7576 16.3738 21.6054 14.0555 21.6 11.6604C21.6 6.10813 17.1 1.6001 11.6 1.6001Z" fill="black"/>
</svg>
