<svg width="13" height="13" viewBox="0 0 13 13" fill="none" xmlns="http://www.w3.org/2000/svg">
<g clip-path="url(#clip0_335_1810)">
<path fill-rule="evenodd" clip-rule="evenodd" d="M11.2109 9.68052C10.4329 9.42174 9.59644 9.22838 8.71609 9.10326C8.83594 8.39923 8.89972 7.66147 8.92003 6.90625H12.1721C12.0993 7.93041 11.7552 8.87818 11.2109 9.68052ZM7.89506 12.0084C8.16563 11.3547 8.38703 10.6482 8.55725 9.90398C9.28769 10.012 9.98806 10.1717 10.6515 10.3813C9.91859 11.1625 8.96716 11.7374 7.89506 12.0084ZM6.89447 12.1676C6.76365 12.1769 6.63325 12.1875 6.5 12.1875C6.36675 12.1875 6.23675 12.1769 6.10553 12.1676C5.75982 11.4477 5.47991 10.6466 5.27272 9.79632C5.67653 9.76097 6.08563 9.74026 6.5 9.74026C6.91437 9.74026 7.32347 9.76097 7.72769 9.79632C7.52009 10.6466 7.24018 11.4477 6.89447 12.1676ZM2.34853 10.3813C3.01194 10.1717 3.71231 10.012 4.44275 9.90398C4.61297 10.6482 4.83437 11.3547 5.10494 12.0084C4.03284 11.7374 3.08181 11.1625 2.34853 10.3813ZM1.78913 9.68052C1.24475 8.87818 0.900654 7.93041 0.827935 6.90625H4.07997C4.10028 7.66147 4.16406 8.39923 4.28391 9.10326C3.40356 9.22838 2.5671 9.42174 1.78913 9.68052ZM1.78913 3.31948C2.5671 3.57826 3.40356 3.77202 4.28391 3.89674C4.16406 4.60077 4.10028 5.33853 4.07997 6.09375H0.827935C0.900654 5.06959 1.24475 4.12182 1.78913 3.31948ZM5.10494 0.991648C4.83437 1.6453 4.61297 2.35177 4.44275 3.09602C3.71231 2.98836 3.01194 2.82831 2.34853 2.61868C3.08181 1.83746 4.03284 1.26262 5.10494 0.991648ZM6.10553 0.832411C6.23675 0.823473 6.36675 0.8125 6.5 0.8125C6.63325 0.8125 6.76365 0.823473 6.89447 0.832411C7.24018 1.55229 7.52009 2.35381 7.72769 3.20368C7.32347 3.23903 6.91437 3.25974 6.5 3.25974C6.08563 3.25974 5.67653 3.23903 5.27272 3.20368C5.47991 2.35381 5.75982 1.55229 6.10553 0.832411ZM8.10631 6.90625C8.08437 7.62166 8.01937 8.32528 7.89709 9.00088C7.43965 8.96107 6.9745 8.9375 6.5 8.9375C6.0255 8.9375 5.56034 8.96107 5.10331 9.00088C4.98062 8.32528 4.91562 7.62166 4.89409 6.90625H8.10631ZM4.89409 6.09375C4.91562 5.37834 4.98062 4.67472 5.10331 3.99912C5.56034 4.03894 6.0255 4.0625 6.5 4.0625C6.9745 4.0625 7.43966 4.03894 7.89669 3.99912C8.01938 4.67472 8.08437 5.37834 8.10631 6.09375H4.89409ZM10.6515 2.61868C9.98806 2.82831 9.28769 2.98836 8.55725 3.09602C8.38703 2.35177 8.16563 1.6453 7.89506 0.991648C8.96716 1.26262 9.91859 1.83746 10.6515 2.61868ZM11.2109 3.31948C11.7552 4.12182 12.0993 5.06959 12.1721 6.09375H8.92003C8.89972 5.33853 8.83594 4.60077 8.71609 3.89674C9.59644 3.77202 10.4329 3.57826 11.2109 3.31948ZM6.5 0C2.91037 0 0 2.90997 0 6.5C0 10.09 2.91037 13 6.5 13C10.0896 13 13 10.09 13 6.5C13 2.90997 10.0896 0 6.5 0Z" fill="black"/>
</g>
<defs>
<clipPath id="clip0_335_1810">
<rect width="13" height="13" fill="white"/>
</clipPath>
</defs>
</svg>
