<svg width="45" height="45" viewBox="0 0 45 45" fill="none" xmlns="http://www.w3.org/2000/svg">
<path d="M38.621 20.6331C38.5462 20.2988 38.3911 19.9877 38.169 19.7267C37.947 19.4658 37.6647 19.2628 37.3466 19.1355L28.3501 15.5372L30.2116 3.12533C30.28 2.67963 30.2037 2.22376 29.994 1.82459C29.7842 1.42542 29.4521 1.10396 29.0464 0.907358C28.6406 0.710755 28.1824 0.649358 27.7392 0.732173C27.296 0.814989 26.8909 1.03766 26.5835 1.36752L6.89601 22.4613C6.66199 22.7119 6.4926 23.0158 6.4025 23.3466C6.31239 23.6775 6.3043 24.0253 6.37893 24.36C6.45355 24.6946 6.60863 25.0061 6.83075 25.2673C7.05286 25.5285 7.33531 25.7317 7.65363 25.8591L16.6501 29.4574L14.7886 41.8746C14.7203 42.3203 14.7965 42.7761 15.0063 43.1753C15.216 43.5745 15.5481 43.8959 15.9539 44.0925C16.3597 44.2891 16.8178 44.3505 17.261 44.2677C17.7043 44.1849 18.1093 43.9622 18.4167 43.6324L38.1042 22.5386C38.3393 22.2873 38.5092 21.9822 38.5993 21.6501C38.6894 21.3179 38.6968 20.9688 38.621 20.6331ZM19.9689 35.7802L21.071 28.4378C21.1414 27.9679 21.0511 27.488 20.8147 27.0758C20.5783 26.6636 20.2097 26.3433 19.7685 26.1667L12.0833 23.0923L25.0314 9.21967L23.9292 16.5621C23.8588 17.032 23.9491 17.5119 24.1855 17.9241C24.4219 18.3363 24.7906 18.6566 25.2318 18.8331L32.9169 21.9076L19.9689 35.7802Z" fill="#A8DADC"/>
</svg>
