<svg width="249" height="331" viewBox="0 0 249 331" fill="none" xmlns="http://www.w3.org/2000/svg">
<path d="M125 108C179.676 108 224 152.324 224 207C224 261.676 179.676 306 125 306C70.3238 306 26 261.676 26 207C26 152.324 70.3238 108 125 108ZM156.998 149.248C156.717 149.187 156.454 149.283 156.271 149.371C156.075 149.465 155.866 149.601 155.66 149.74L155.649 149.748L145.801 156.815L134.174 154.107L134.159 154.104L134.145 154.102C133.751 154.034 133.398 154.004 133.102 154.043C132.796 154.084 132.488 154.208 132.294 154.504C132.115 154.778 132.098 155.103 132.126 155.389C132.147 155.609 132.201 155.855 132.273 156.121L132.353 156.395L132.354 156.397L134.667 163.857L134.672 163.874L134.679 163.891C134.802 164.206 134.836 164.378 134.828 164.508C134.822 164.616 134.782 164.742 134.65 164.948L61.6875 223.339L62.2344 224.171L143.388 181.13C143.715 181.143 143.926 181.173 144.104 181.241C144.294 181.314 144.488 181.445 144.752 181.731L151.318 189.322C151.604 189.684 151.869 189.98 152.125 190.186C152.377 190.388 152.689 190.558 153.047 190.529C153.418 190.5 153.687 190.269 153.879 190.018C154.07 189.767 154.237 189.428 154.396 189.037L154.403 189.021L154.408 189.004L158.408 176.817L169.048 171.676C169.607 171.457 170.056 171.245 170.38 171.023C170.695 170.808 170.992 170.516 171.047 170.109C171.103 169.691 170.878 169.347 170.638 169.094C170.389 168.833 170.032 168.571 169.612 168.3L169.589 168.286L159.301 162.417L157.822 150.667H157.821C157.784 150.326 157.726 150.03 157.623 149.8C157.513 149.556 157.32 149.319 156.998 149.248ZM149.5 203C147.567 203 146 204.567 146 206.5C146 208.433 147.567 210 149.5 210C151.433 210 153 208.433 153 206.5C153 204.567 151.433 203 149.5 203ZM180.49 175.808C179.323 178.616 178.233 180.501 176.793 181.925C175.356 183.345 173.533 184.343 170.832 185.307L169.455 185.798L170.845 186.253C173.75 187.205 175.516 188.365 176.871 189.918C178.244 191.492 179.221 193.494 180.5 196.213L181.033 197.346L181.427 196.157C182.434 193.123 183.297 191.019 184.554 189.486C185.791 187.977 187.446 186.982 190.13 186.261L191.618 185.86L190.179 185.311C187.397 184.248 185.658 183.138 184.396 181.695C183.127 180.245 182.303 178.418 181.426 175.839L180.999 174.585L180.49 175.808ZM59.5 182C57.567 182 56 183.567 56 185.5C56 187.433 57.567 189 59.5 189C61.433 189 63 187.433 63 185.5C63 183.567 61.433 182 59.5 182ZM85.5371 142.811C84.2455 145.973 83.0368 148.104 81.4365 149.714C79.8402 151.32 77.8168 152.445 74.8291 153.53L73.4795 154.021L74.8418 154.475C78.0582 155.547 80.0203 156.857 81.5264 158.613C83.0508 160.391 84.1326 162.652 85.5459 165.71L86.0801 166.866L86.4756 165.655C87.5888 162.241 88.5448 159.863 89.9424 158.129C91.32 156.419 93.1604 155.296 96.1318 154.482L97.5918 154.082L96.1816 153.534C93.1036 152.338 91.1728 151.084 89.7695 149.451C88.3598 147.811 87.445 145.745 86.4746 142.842L86.0469 141.562L85.5371 142.811ZM126 139C123.791 139 122 140.791 122 143C122 145.209 123.791 147 126 147C128.209 147 130 145.209 130 143C130 140.791 128.209 139 126 139Z" fill="#A8DADC"/>
<path d="M124.5 82C193.259 82 249 137.741 249 206.5C249 275.259 193.259 331 124.5 331C55.7405 331 0 275.259 0 206.5C0 137.741 55.7405 82 124.5 82ZM129 114C129 116.761 126.761 119 124 119C121.239 119 119 116.761 119 114V100.14C64.8932 102.892 21.4459 146.026 18.1963 200H33C35.7614 200 38 202.239 38 205C38 207.761 35.7614 210 33 210H18.0586C18.8731 235.225 28.4585 258.233 43.8662 276.074C68.7336 254.535 86.5987 248.012 121.5 246C156.044 246.183 174.443 252.472 204.902 276.34C220.445 258.462 230.123 235.351 230.941 210H215C212.239 210 210 207.761 210 205C210 202.239 212.239 200 215 200H230.804C227.534 145.694 183.571 102.363 129 100.095V114Z" fill="#2C2C54"/>
<path d="M124.5 0C150.734 0 172 14.9985 172 33.5C172 46.6865 161.196 58.09 145.491 63.5557C143.671 66.6589 140.376 68.7921 136.566 68.9854L136 69V76H137C139.761 76 142 78.2386 142 81V88C142 90.7614 139.761 93 137 93H112C109.239 93 107 90.7614 107 88V81C107 78.2386 109.239 76 112 76H113V69L112.434 68.9854C108.624 68.7921 105.328 66.6591 103.508 63.5557C87.8037 58.0899 77 46.6863 77 33.5C77 14.9985 98.2665 0 124.5 0ZM124.5 11C113.381 11 103.782 14.1955 97.252 18.8008C90.6926 23.4269 88 28.7866 88 33.5C88 38.2134 90.6926 43.5731 97.252 48.1992C98.691 49.2141 100.279 50.1597 102 51.0186V47C102 40.9249 106.925 36 113 36H136C142.075 36 147 40.9249 147 47V51.0186C148.721 50.1597 150.309 49.2141 151.748 48.1992C158.307 43.5731 161 38.2134 161 33.5C161 28.7866 158.307 23.4269 151.748 18.8008C145.218 14.1955 135.619 11 124.5 11Z" fill="#2C2C54"/>
</svg>
