<svg width="45" height="45" viewBox="0 0 45 45" fill="none" xmlns="http://www.w3.org/2000/svg">
<path fill-rule="evenodd" clip-rule="evenodd" d="M22.5 5.15625C16.0279 5.15625 10.7813 10.4029 10.7813 16.875C10.7813 23.3471 16.0279 28.5938 22.5 28.5938C28.9721 28.5938 34.2188 23.3471 34.2188 16.875C34.2188 10.4029 28.9721 5.15625 22.5 5.15625ZM7.96875 16.875C7.96875 8.84961 14.4746 2.34375 22.5 2.34375C30.5254 2.34375 37.0313 8.84961 37.0313 16.875C37.0313 21.0476 35.2725 24.8094 32.4559 27.4597C32.5048 27.5511 32.5444 27.6491 32.5729 27.7532L33.7907 32.1954C34.3598 34.2705 34.818 35.9419 35.0263 37.2388C35.2307 38.5101 35.2725 39.8196 34.5611 40.884C34.1561 41.49 33.6062 41.9863 32.9561 42.3173C31.7752 42.9186 30.4873 42.6221 29.3336 42.1866C28.1569 41.7422 26.679 40.9721 24.8638 40.0264L24.7764 39.9808C23.4186 39.2732 23.064 39.1144 22.7233 39.0782C22.5748 39.0622 22.4252 39.0622 22.2767 39.0782C21.936 39.1144 21.5814 39.2732 20.2236 39.9808L20.1362 40.0264C18.321 40.9721 16.8432 41.7422 15.6664 42.1866C14.5126 42.6221 13.2248 42.9186 12.0439 42.3173C11.3939 41.9863 10.8439 41.49 10.4389 40.884C9.7275 39.8196 9.76933 38.5101 9.97361 37.2388C10.1821 35.9419 10.6403 34.2705 11.2093 32.1954L12.4271 27.7532C12.4557 27.6491 12.4952 27.5511 12.544 27.4597C9.72746 24.8094 7.96875 21.0476 7.96875 16.875ZM14.9253 29.2783L13.9454 32.8524C13.3472 35.0344 12.9317 36.5574 12.7505 37.6851C12.5622 38.8566 12.7026 39.2094 12.7773 39.3212C12.9232 39.5396 13.1124 39.7052 13.3201 39.8109C13.3629 39.8327 13.6315 39.9484 14.6731 39.5552C15.6727 39.1779 17.0003 38.4889 18.924 37.4865C18.9893 37.4526 19.0539 37.4188 19.1179 37.3854C20.1829 36.8289 21.0396 36.3816 21.9788 36.2814C22.3253 36.2445 22.6748 36.2445 23.0213 36.2814C23.9604 36.3816 24.8171 36.8289 25.8821 37.3854C25.9461 37.4188 26.0108 37.4526 26.076 37.4865C27.9998 38.4889 29.3273 39.1779 30.327 39.5552C31.3686 39.9484 31.6371 39.8327 31.68 39.8109C31.8876 39.7052 32.0768 39.5396 32.2228 39.3212C32.2974 39.2094 32.4379 38.8566 32.2494 37.6851C32.0683 36.5574 31.6528 35.0344 31.0547 32.8524L30.0746 29.2783C27.8691 30.6281 25.2754 31.4062 22.5 31.4062C19.7246 31.4062 17.131 30.6281 14.9253 29.2783Z" fill="#A8DADC"/>
</svg>
