<svg width="85" height="85" viewBox="0 0 85 85" fill="none" xmlns="http://www.w3.org/2000/svg">
<circle cx="42.5" cy="42.5" r="35.5" fill="#2C2C54" fill-opacity="0.5"/>
<path d="M58.4375 42.5C58.4377 43.1443 58.2816 43.7791 57.9826 44.3499C57.6836 44.9207 57.2507 45.4104 56.7209 45.7771L39.4553 57.7303C38.8574 58.1442 38.1576 58.3865 37.4318 58.4311C36.706 58.4757 35.9818 58.3208 35.3378 57.9832C34.6937 57.6456 34.1543 57.1382 33.778 56.5159C33.4017 55.8937 33.2029 55.1803 33.2031 54.4531V30.5469C33.2029 29.8197 33.4017 29.1063 33.778 28.4841C34.1543 27.8618 34.6937 27.3544 35.3378 27.0168C35.9818 26.6792 36.706 26.5243 37.4318 26.5689C38.1576 26.6135 38.8574 26.8558 39.4553 27.2697L56.7209 39.2228C57.2507 39.5896 57.6836 40.0793 57.9826 40.6501C58.2816 41.2209 58.4377 41.8557 58.4375 42.5ZM78.3594 42.5C78.3594 49.5923 76.2563 56.5253 72.316 62.4224C68.3757 68.3194 62.7752 72.9156 56.2228 75.6297C49.6704 78.3438 42.4602 79.054 35.5042 77.6703C28.5482 76.2867 22.1586 72.8714 17.1436 67.8564C12.1286 62.8414 8.71331 56.4518 7.32967 49.4958C5.94603 42.5398 6.65616 35.3297 9.37027 28.7772C12.0844 22.2248 16.6806 16.6243 22.5776 12.684C28.4747 8.74374 35.4077 6.64063 42.5 6.64062C52.0073 6.65117 61.1221 10.4326 67.8448 17.1552C74.5674 23.8779 78.3488 32.9927 78.3594 42.5ZM70.3906 42.5C70.3906 36.9838 68.7549 31.5914 65.6902 27.0048C62.6256 22.4182 58.2696 18.8434 53.1733 16.7324C48.0769 14.6214 42.4691 14.0691 37.0588 15.1453C31.6486 16.2214 26.6789 18.8778 22.7784 22.7783C18.8778 26.6789 16.2215 31.6486 15.1453 37.0588C14.0691 42.4691 14.6215 48.0769 16.7324 53.1733C18.8434 58.2696 22.4182 62.6255 27.0048 65.6902C31.5914 68.7549 36.9838 70.3906 42.5 70.3906C49.8946 70.3827 56.9841 67.4417 62.2129 62.2129C67.4417 56.9841 70.3827 49.8946 70.3906 42.5Z" fill="#A8DADC"/>
</svg>
