<svg width="45" height="45" viewBox="0 0 45 45" fill="none" xmlns="http://www.w3.org/2000/svg">
<g clip-path="url(#clip0_315_1800)">
<path fill-rule="evenodd" clip-rule="evenodd" d="M18.103 6.37476C19.6331 6.87161 21.1068 7.52771 22.4999 8.33226C23.893 7.52771 25.3667 6.87161 26.8968 6.37476C30.7293 5.16351 34.5468 5.37914 37.0837 7.91601C39.6205 10.4529 39.8362 14.2723 38.6249 18.1029C38.128 19.6329 37.4719 21.1066 36.6674 22.4998C37.5224 24.0054 38.1768 25.481 38.6249 26.8966C39.8362 30.7273 39.6205 34.5466 37.0837 37.0835C34.5487 39.6204 30.7274 39.836 26.8968 38.6248C25.3667 38.1279 23.893 37.4718 22.4999 36.6673C21.1068 37.4718 19.6331 38.1279 18.103 38.6248C14.2724 39.8341 10.453 39.6204 7.91617 37.0835C5.37929 34.5466 5.16554 30.7273 6.37492 26.8966C6.82304 25.4791 7.47742 24.0054 8.33242 22.4998C7.52786 21.1067 6.87177 19.633 6.37492 18.1029C5.16554 14.2704 5.38117 10.4529 7.91617 7.91601C10.453 5.37914 14.2724 5.16351 18.103 6.37476ZM34.2937 26.0791C33.1874 27.5379 31.9049 29.0041 30.4555 30.4554C29.0858 31.8322 27.6236 33.1139 26.0793 34.2916C26.7524 34.5991 27.403 34.8523 28.0274 35.0491C31.2112 36.0541 33.3074 35.5554 34.4324 34.4304C35.5574 33.3073 36.0562 31.2091 35.0512 28.0273C34.8388 27.3624 34.5858 26.7112 34.2937 26.0773V26.0791ZM10.7062 26.0791C10.4148 26.7125 10.1625 27.3631 9.95054 28.0273C8.94554 31.211 9.44429 33.3073 10.5693 34.4323C11.6924 35.5573 13.7905 36.0541 16.9724 35.0491C17.5987 34.8523 18.2474 34.5991 18.9224 34.2916C17.3781 33.1139 15.916 31.8322 14.5462 30.4554C13.1687 29.0856 11.8845 27.6235 10.7062 26.0791ZM22.4999 12.7498C20.5975 14.0635 18.8222 15.5525 17.1974 17.1973C15.5526 18.8221 14.0636 20.5973 12.7499 22.4998C14.0625 24.402 15.5502 26.1773 17.1937 27.8023C18.9993 29.6079 20.7862 31.0835 22.4999 32.2498C24.4024 30.936 26.1776 29.447 27.8024 27.8023C29.4465 26.1774 30.9349 24.4021 32.248 22.4998C30.9356 20.5974 29.4478 18.8222 27.8043 17.1973C26.1789 15.5524 24.403 14.0634 22.4999 12.7498ZM22.4999 19.6873C23.2458 19.6873 23.9612 19.9836 24.4887 20.511C25.0161 21.0385 25.3124 21.7538 25.3124 22.4998C25.3124 23.2457 25.0161 23.9611 24.4887 24.4885C23.9612 25.0159 23.2458 25.3123 22.4999 25.3123C21.754 25.3123 21.0386 25.0159 20.5112 24.4885C19.9837 23.9611 19.6874 23.2457 19.6874 22.4998C19.6874 21.7538 19.9837 21.0385 20.5112 20.511C21.0386 19.9836 21.754 19.6873 22.4999 19.6873ZM10.5674 10.5673C9.44242 11.6923 8.94554 13.7885 9.95054 16.9723C10.1474 17.5966 10.4005 18.2473 10.708 18.9223C11.8143 17.4598 13.0949 15.9954 14.5462 14.5441C15.9154 13.1674 17.3769 11.8857 18.9205 10.7079C18.2872 10.4159 17.6366 10.1629 16.9724 9.95039C13.7905 8.94539 11.6924 9.44414 10.5674 10.5673ZM28.0274 9.95039C27.403 10.1473 26.7524 10.4004 26.0793 10.7079C27.538 11.8141 29.0043 13.0948 30.4555 14.5441C31.833 15.9139 33.1153 17.376 34.2937 18.9204C34.6012 18.2473 34.8524 17.5966 35.0493 16.9723C36.0562 13.7885 35.5574 11.6923 34.4324 10.5673C33.3074 9.44226 31.2112 8.94539 28.0274 9.95039Z" fill="#A8DADC"/>
</g>
<defs>
<clipPath id="clip0_315_1800">
<rect width="45" height="45" fill="white"/>
</clipPath>
</defs>
</svg>
