<svg width="13" height="13" viewBox="0 0 13 13" fill="none" xmlns="http://www.w3.org/2000/svg">
<path d="M5.4165 7.58333L11.3748 1.625" stroke="#A8DADC" stroke-linecap="round" stroke-linejoin="round"/>
<path d="M11.375 1.625L7.85414 11.375C7.83038 11.4269 7.79222 11.4708 7.74421 11.5016C7.6962 11.5324 7.64036 11.5488 7.58331 11.5488C7.52626 11.5488 7.47042 11.5324 7.42241 11.5016C7.3744 11.4708 7.33624 11.4269 7.31248 11.375L5.41664 7.58333L1.62498 5.6875C1.57312 5.66373 1.52917 5.62558 1.49836 5.57757C1.46755 5.52956 1.45117 5.47371 1.45117 5.41667C1.45117 5.35962 1.46755 5.30377 1.49836 5.25576C1.52917 5.20775 1.57312 5.1696 1.62498 5.14583L11.375 1.625Z" stroke="#A8DADC" stroke-linecap="round" stroke-linejoin="round"/>
</svg>
